Release Group: Penumbra
Container: MKV
Format: x264
Resolution: 1080p
Source Media: Blu-Ray
Audio Format: DTS
Audio Channels: 6
Audio Bitrate: 1510
Subtitles English
 
http://akas.imdb.com/title/tt0367959

Complete Name : X:\Hannibal.Rising.2007.BluRay.1080p.DTS-Penumbra.mkv
Format : Matroska
File Size : 12.0 GiB
Duration : 2h 10mn
Overall bit rate : 13.1 Mbps
Encoded date : UTC 2011-02-03 18:05:06
Writing application : mkvmerge v3.3.0 ('Language') built on Mar 24 2010 14:59:24
Writing library : libebml v0.8.0 + libmatroska v0.9.0

Video
ID : 1
Format : AVC
Format/Info : Advanced Video Codec
Format profile : High@L4.0
Format settings, CABAC : Yes
Format settings, ReFrames : 5 frames
Codec ID : V_MPEG4/ISO/AVC
Duration : 2h 10mn
Bit rate : 11.4 Mbps
Width: 1 920 pixels
Height: 820 pixels
Display aspect ratio : 2.35:1
Frame rate mode : Constant
Frame Rate: 23.976 fps
Color space : YUV
Chroma subsampling : 4:2:0
Bit depth : 8 bits
Scan Type : Progressive
Bits/(Pixel*Frame) : 0.301
Stream size : 10.4 GiB (87%)
Title : Video
Writing library : x264 core 107 r1745 4785e8e
Encoding settings : cabac=1 / ref=5 / deblock=1:-3:-3 / analyse=0x3:0x113 / me=umh / subme=10 / psy=1 / psy_rd=1.00:0.00 / mixed_ref=1 / me_range=64 / chroma_me=1 / trellis=2 / 8x8dct=1 / cqm=0 / deadzone=21,11 / fast_pskip=0 / chroma_qp_offset=-2 / threads=6 / sliced_threads=0 / nr=0 / decimate=1 / interlaced=0 / constrained_intra=0 / bframes=6 /b_pyramid=2 / b_adapt=2 / b_bias=0 / direct=3 / weightb=1 / open_gop=0 / weightp=2 / keyint=250 / keyint_min=23 / scenecut=40 / intra_refresh=0 / rc_lookahead=100 / rc=crf / mbtree=1 / crf=18.1 / qcomp=0.80 / qpmin=10 / qpmax=51 / qpstep=4 / ip_ratio=1.40 / aq=1:0.80
Language : English

Audio
ID : 2
Format : DTS
Format/Info : Digital Theater Systems
Codec ID : A_DTS
Duration : 2h 10mn
Bit rate mode : Constant
Bit Rate : 1 510 Kbps
Channel(s): 6 channels
Channel positions : Front: L C R, Side: L R, LFE
Sampling rate : 48.0 KHz
Bit depth : 16 bits
Compression mode : Lossy
Stream size : 1.38 GiB (11%)
Title : DTS 5.1 / 1510 Kbps
Language : English

Text
ID : 3
Format : UTF-8
Codec ID : S_TEXT/UTF8
Codec ID/Info : UTF-8 Plain Text
Title : SDH
Language : English
 
http://www.imagebam.com/image/d0eab6118236996
 
http://www.imagebam.com/image/7bc1e2118237005
 
http://www.imagebam.com/image/d1df1a118237014

